<svg xmlns="http://www.w3.org/2000/svg" viewBox="0 0 900 680"><defs><linearGradient id="sky" x2="0" y2="1"><stop stop-color="#bfd2c5"/><stop offset="1" stop-color="#e6eadc"/></linearGradient><pattern id="floor" width="60" height="60" patternUnits="userSpaceOnUse"><rect width="60" height="60" fill="#a9b7ae"/><path d="M60 0H0V60" stroke="#d9e0d6" stroke-width="2"/></pattern></defs><path fill="url(#sky)" d="M0 0h900v680H0z"/><circle cx="710" cy="130" r="62" fill="#f5f0dc"/><path d="M0 340h120V210h100v150h90V270h170v70h90V240h110v130h90V295h130v385H0" fill="#789388" opacity=".4"/><path d="m-100 455 650-195 450 170v320H-100" fill="#637e71"/><path d="m-100 480 650-190 450 175v260H-100" fill="url(#floor)"/><path d="m-100 425 650-195 450 172v63L550 290l-650 190" fill="#e2e6dc"/><path d="m-100 425 650-195 450 172" fill="none" stroke="#f5f6ef" stroke-width="13"/><path d="m235 545 330-105 138 50-330 105z" fill="#c9d4ca"/><path d="m235 545 138 50v30l-138-52z" fill="#7f9789"/><path d="m373 595 330-105v28L373 625z" fill="#98aea0"/><path d="M565 440v-72l138 50v72" fill="#ecede3"/><path d="m565 368 138 50-44 15-138-50z" fill="#f8f7ed"/><text x="45" y="640" fill="#173e35" font-family="sans-serif" font-size="13" letter-spacing="3">WATERPROOFING / ILLUSTRATION</text></svg>
